<svg width="3918" height="566" viewBox="0 0 3918 566" fill="none" xmlns="http://www.w3.org/2000/svg">
<path fill-rule="evenodd" clip-rule="evenodd" d="M346.397 56.6486C335.002 45.5589 319.73 39.3537 303.829 39.3537C287.929 39.3537 272.656 45.5589 261.261 56.6486L34.2481 279.275C30.4492 282.968 25.3603 285.033 20.0627 285.033C14.7651 285.033 9.67618 282.968 5.87732 279.275C4.01746 277.467 2.53909 275.303 1.5296 272.913C0.520116 270.523 0 267.955 0 265.361C0 262.767 0.520116 260.199 1.5296 257.809C2.53909 255.419 4.01746 253.256 5.87732 251.447L232.891 28.8203C251.88 10.3402 277.332 0 303.829 0C330.327 0 355.778 10.3402 374.768 28.8203C385.756 39.506 394.057 52.6417 398.992 67.1524C403.927 81.6631 405.356 97.1362 403.162 112.305C418.533 110.119 434.2 111.491 448.956 116.316C463.713 121.141 477.164 129.289 488.274 140.134L489.454 141.313C498.753 150.357 506.145 161.173 511.192 173.122C516.24 185.072 518.84 197.912 518.84 210.884C518.84 223.855 516.24 236.695 511.192 248.645C506.145 260.594 498.753 271.411 489.454 280.454L284.137 481.785C283.517 482.388 283.025 483.108 282.688 483.904C282.352 484.7 282.179 485.555 282.179 486.419C282.179 487.284 282.352 488.139 282.688 488.935C283.025 489.731 283.517 490.451 284.137 491.054L326.304 532.419C328.164 534.228 329.642 536.391 330.652 538.781C331.661 541.171 332.181 543.739 332.181 546.333C332.181 548.927 331.661 551.495 330.652 553.885C329.642 556.275 328.164 558.438 326.304 560.247C322.505 563.94 317.416 566.005 312.119 566.005C306.821 566.005 301.732 563.94 297.933 560.247L255.766 518.906C251.423 514.685 247.971 509.637 245.613 504.059C243.256 498.481 242.041 492.487 242.041 486.431C242.041 480.376 243.256 474.381 245.613 468.803C247.971 463.226 251.423 458.177 255.766 453.957L461.083 252.603C466.66 247.175 471.092 240.684 474.119 233.515C477.145 226.345 478.705 218.642 478.705 210.86C478.705 203.078 477.145 195.375 474.119 188.205C471.092 181.036 466.66 174.545 461.083 169.118L459.904 167.962C448.521 156.884 433.269 150.679 417.385 150.666C401.502 150.653 386.239 156.832 374.839 167.891L205.699 333.776L205.652 333.824L203.341 336.111C199.541 339.811 194.447 341.881 189.143 341.881C183.84 341.881 178.746 339.811 174.946 336.111C173.086 334.302 171.608 332.139 170.599 329.749C169.589 327.359 169.069 324.791 169.069 322.197C169.069 319.603 169.589 317.035 170.599 314.645C171.608 312.255 173.086 310.092 174.946 308.283L346.468 140.063C352.029 134.631 356.447 128.142 359.461 120.976C362.475 113.811 364.025 106.114 364.018 98.3408C364.011 90.5672 362.449 82.8736 359.423 75.7132C356.396 68.5529 351.968 62.0707 346.397 56.6486Z" fill="white"/>
<path fill-rule="evenodd" clip-rule="evenodd" d="M318.026 112.305C319.886 110.497 321.365 108.333 322.374 105.943C323.384 103.554 323.904 100.986 323.904 98.3912C323.904 95.7968 323.384 93.2288 322.374 90.8389C321.365 88.449 319.886 86.2858 318.026 84.477C314.226 80.7776 309.132 78.7075 303.829 78.7075C298.526 78.7075 293.432 80.7776 289.632 84.477L121.742 249.136C112.443 258.18 105.051 268.996 100.004 280.945C94.9562 292.895 92.3556 305.735 92.3556 318.707C92.3556 331.678 94.9562 344.519 100.004 356.468C105.051 368.418 112.443 379.234 121.742 388.278C140.735 406.752 166.185 417.088 192.681 417.088C219.177 417.088 244.627 406.752 263.62 388.278L431.533 223.619C433.393 221.81 434.871 219.647 435.881 217.257C436.89 214.867 437.41 212.299 437.41 209.705C437.41 207.11 436.89 204.542 435.881 202.152C434.871 199.762 433.393 197.599 431.533 195.79C427.733 192.091 422.639 190.021 417.336 190.021C412.032 190.021 406.939 192.091 403.139 195.79L235.249 360.449C223.854 371.539 208.581 377.744 192.681 377.744C176.78 377.744 161.508 371.539 150.113 360.449C144.536 355.021 140.104 348.531 137.077 341.362C134.051 334.192 132.491 326.489 132.491 318.707C132.491 310.925 134.051 303.221 137.077 296.052C140.104 288.882 144.536 282.392 150.113 276.964L318.026 112.305Z" fill="white"/>
<path d="M624.111 117.665H665.26L736.804 292.356H739.437L810.981 117.665H852.13V342.393H819.87V179.773H817.785L751.508 342.064H724.734L658.457 179.663H656.372V342.393H624.111V117.665Z" fill="white"/>
<path d="M1088.08 190.746H1053.84C1052.52 183.43 1050.07 176.993 1046.49 171.433C1042.91 165.874 1038.52 161.155 1033.32 157.278C1028.13 153.401 1022.31 150.475 1015.87 148.5C1009.51 146.524 1002.74 145.537 995.575 145.537C982.627 145.537 971.032 148.792 960.79 155.303C950.622 161.814 942.575 171.36 936.65 183.942C930.798 196.525 927.871 211.887 927.871 230.029C927.871 248.317 930.798 263.753 936.65 276.335C942.575 288.918 950.659 298.428 960.9 304.865C971.142 311.303 982.663 314.521 995.465 314.521C1002.56 314.521 1009.29 313.57 1015.66 311.668C1022.09 309.693 1027.91 306.804 1033.1 303C1038.3 299.196 1042.69 294.55 1046.27 289.064C1049.93 283.504 1052.45 277.14 1053.84 269.971L1088.08 270.081C1086.25 281.127 1082.7 291.295 1077.43 300.586C1072.24 309.803 1065.55 317.777 1057.35 324.507C1049.23 331.164 1039.94 336.321 1029.48 339.979C1019.02 343.636 1007.61 345.465 995.246 345.465C975.787 345.465 958.45 340.857 943.234 331.639C928.018 322.349 916.021 309.071 907.242 291.807C898.537 274.543 894.184 253.95 894.184 230.029C894.184 206.035 898.573 185.442 907.352 168.251C916.13 150.987 928.127 137.746 943.343 128.529C958.559 119.238 975.86 114.593 995.246 114.593C1007.17 114.593 1018.29 116.312 1028.6 119.75C1038.99 123.115 1048.32 128.09 1056.58 134.674C1064.85 141.184 1071.69 149.158 1077.1 158.595C1082.52 167.958 1086.18 178.675 1088.08 190.746Z" fill="white"/>
<path d="M1128.65 342.393V117.665H1208.75C1226.24 117.665 1240.72 120.848 1252.21 127.212C1263.69 133.576 1272.29 142.282 1277.99 153.328C1283.7 164.301 1286.55 176.664 1286.55 190.417C1286.55 204.243 1283.66 216.679 1277.88 227.725C1272.18 238.698 1263.54 247.403 1251.99 253.841C1240.5 260.205 1226.05 263.387 1208.64 263.387H1153.56V234.638H1205.57C1216.62 234.638 1225.58 232.736 1232.45 228.932C1239.33 225.055 1244.38 219.788 1247.6 213.131C1250.82 206.474 1252.43 198.902 1252.43 190.417C1252.43 181.931 1250.82 174.396 1247.6 167.812C1244.38 161.228 1239.29 156.071 1232.35 152.34C1225.47 148.609 1216.4 146.744 1205.13 146.744H1162.56V342.393H1128.65Z" fill="white"/>
<path d="M1524.83 182.297C1523.95 173.445 1520.19 166.569 1513.53 161.667C1506.87 156.766 1497.84 154.315 1486.43 154.315C1478.67 154.315 1472.12 155.413 1466.78 157.607C1461.44 159.729 1457.35 162.691 1454.49 166.495C1451.71 170.299 1450.32 174.615 1450.32 179.444C1450.18 183.467 1451.02 186.978 1452.85 189.978C1454.75 192.977 1457.35 195.574 1460.64 197.768C1463.93 199.89 1467.73 201.755 1472.05 203.365C1476.37 204.901 1480.98 206.218 1485.88 207.315L1506.07 212.143C1515.87 214.338 1524.87 217.264 1533.06 220.922C1541.25 224.579 1548.35 229.078 1554.35 234.418C1560.35 239.759 1564.99 246.05 1568.28 253.292C1571.65 260.534 1573.37 268.837 1573.44 278.201C1573.37 291.953 1569.86 303.877 1562.91 313.973C1556.03 323.995 1546.08 331.785 1533.06 337.345C1520.11 342.832 1504.49 345.575 1486.21 345.575C1468.06 345.575 1452.26 342.795 1438.8 337.235C1425.42 331.676 1414.95 323.446 1407.42 312.546C1399.96 301.573 1396.04 288.003 1395.68 271.836H1441.66C1442.17 279.371 1444.33 285.662 1448.13 290.71C1452.01 295.684 1457.16 299.452 1463.6 302.012C1470.11 304.499 1477.46 305.743 1485.66 305.743C1493.7 305.743 1500.69 304.572 1506.62 302.232C1512.61 299.891 1517.26 296.635 1520.55 292.466C1523.84 288.296 1525.49 283.504 1525.49 278.091C1525.49 273.043 1523.99 268.8 1520.99 265.362C1518.06 261.924 1513.75 258.998 1508.04 256.584C1502.41 254.17 1495.5 251.975 1487.3 250L1462.83 243.855C1443.89 239.246 1428.93 232.041 1417.95 222.238C1406.98 212.436 1401.53 199.232 1401.6 182.626C1401.53 169.019 1405.15 157.132 1412.47 146.963C1419.86 136.795 1429.99 128.858 1442.86 123.152C1455.74 117.446 1470.37 114.593 1486.75 114.593C1503.43 114.593 1517.99 117.446 1530.43 123.152C1542.94 128.858 1552.67 136.795 1559.62 146.963C1566.56 157.132 1570.15 168.909 1570.37 182.297H1524.83Z" fill="white"/>
<path d="M1681.33 345.685C1664 345.685 1649.07 342.173 1636.56 335.151C1624.13 328.055 1614.54 318.033 1607.81 305.085C1601.08 292.063 1597.72 276.664 1597.72 258.888C1597.72 241.551 1601.08 226.335 1607.81 213.24C1614.54 200.146 1624.02 189.941 1636.23 182.626C1648.52 175.31 1662.94 171.653 1679.47 171.653C1690.59 171.653 1700.94 173.445 1710.52 177.029C1720.18 180.541 1728.59 185.844 1735.76 192.94C1743 200.036 1748.63 208.961 1752.66 219.714C1756.68 230.395 1758.69 242.904 1758.69 257.242V270.081H1616.37V241.112H1714.69C1714.69 234.382 1713.23 228.42 1710.3 223.226C1707.38 218.032 1703.32 213.972 1698.12 211.046C1693 208.047 1687.04 206.547 1680.24 206.547C1673.14 206.547 1666.85 208.193 1661.36 211.485C1655.95 214.703 1651.71 219.056 1648.63 224.543C1645.56 229.956 1643.99 235.991 1643.92 242.648V270.19C1643.92 278.53 1645.45 285.735 1648.52 291.807C1651.67 297.879 1656.1 302.561 1661.8 305.853C1667.51 309.145 1674.27 310.79 1682.1 310.79C1687.3 310.79 1692.05 310.059 1696.37 308.596C1700.68 307.133 1704.38 304.938 1707.45 302.012C1710.52 299.086 1712.86 295.501 1714.47 291.259L1757.71 294.111C1755.51 304.499 1751.01 313.57 1744.21 321.325C1737.48 329.006 1728.77 335.004 1718.09 339.32C1707.49 343.563 1695.23 345.685 1681.33 345.685Z" fill="white"/>
<path d="M1789.2 342.393V173.847H1834.52V203.255H1836.27C1839.34 192.794 1844.5 184.893 1851.74 179.553C1858.99 174.14 1867.33 171.433 1876.76 171.433C1879.1 171.433 1881.63 171.58 1884.33 171.872C1887.04 172.165 1889.42 172.567 1891.47 173.079V214.557C1889.27 213.899 1886.24 213.314 1882.36 212.801C1878.48 212.289 1874.93 212.033 1871.72 212.033C1864.84 212.033 1858.69 213.533 1853.28 216.532C1847.94 219.458 1843.7 223.555 1840.55 228.822C1837.48 234.089 1835.94 240.161 1835.94 247.037V342.393H1789.2Z" fill="white"/>
<path d="M2077.9 173.847L2018.97 342.393H1966.3L1907.38 173.847H1956.76L1991.76 294.441H1993.52L2028.41 173.847H2077.9Z" fill="white"/>
<path d="M2173.2 345.685C2155.86 345.685 2140.94 342.173 2128.43 335.151C2115.99 328.055 2106.41 318.033 2099.68 305.085C2092.95 292.063 2089.58 276.664 2089.58 258.888C2089.58 241.551 2092.95 226.335 2099.68 213.24C2106.41 200.146 2115.88 189.941 2128.1 182.626C2140.39 175.31 2154.8 171.653 2171.33 171.653C2182.45 171.653 2192.8 173.445 2202.39 177.029C2212.04 180.541 2220.46 185.844 2227.62 192.94C2234.87 200.036 2240.5 208.961 2244.52 219.714C2248.55 230.395 2250.56 242.904 2250.56 257.242V270.081H2108.24V241.112H2206.56C2206.56 234.382 2205.09 228.42 2202.17 223.226C2199.24 218.032 2195.18 213.972 2189.99 211.046C2184.87 208.047 2178.9 206.547 2172.1 206.547C2165.01 206.547 2158.71 208.193 2153.23 211.485C2147.81 214.703 2143.57 219.056 2140.5 224.543C2137.43 229.956 2135.85 235.991 2135.78 242.648V270.19C2135.78 278.53 2137.32 285.735 2140.39 291.807C2143.53 297.879 2147.96 302.561 2153.67 305.853C2159.37 309.145 2166.14 310.79 2173.97 310.79C2179.16 310.79 2183.92 310.059 2188.23 308.596C2192.55 307.133 2196.24 304.938 2199.31 302.012C2202.39 299.086 2204.73 295.501 2206.34 291.259L2249.57 294.111C2247.38 304.499 2242.88 313.57 2236.07 321.325C2229.34 329.006 2220.64 335.004 2209.96 339.32C2199.35 343.563 2187.1 345.685 2173.2 345.685Z" fill="white"/>
<path d="M2281.06 342.393V173.847H2326.38V203.255H2328.14C2331.21 192.794 2336.37 184.893 2343.61 179.553C2350.85 174.14 2359.19 171.433 2368.63 171.433C2370.97 171.433 2373.49 171.58 2376.2 171.872C2378.91 172.165 2381.28 172.567 2383.33 173.079V214.557C2381.14 213.899 2378.1 213.314 2374.22 212.801C2370.35 212.289 2366.8 212.033 2363.58 212.033C2356.7 212.033 2350.56 213.533 2345.15 216.532C2339.81 219.458 2335.56 223.555 2332.42 228.822C2329.34 234.089 2327.81 240.161 2327.81 247.037V342.393H2281.06Z" fill="white"/>
<path d="M2507.38 231.565V268.654H2404.89V231.565H2507.38Z" fill="white"/>
<path d="M2530.18 156.839V117.665H2714.74V156.839H2645.94V342.393H2598.98V156.839H2530.18Z" fill="white"/>
<path d="M2796.63 345.685C2779.29 345.685 2764.37 342.173 2751.86 335.151C2739.42 328.055 2729.84 318.033 2723.11 305.085C2716.38 292.063 2713.02 276.664 2713.02 258.888C2713.02 241.551 2716.38 226.335 2723.11 213.24C2729.84 200.146 2739.31 189.941 2751.53 182.626C2763.82 175.31 2778.23 171.653 2794.76 171.653C2805.88 171.653 2816.24 173.445 2825.82 177.029C2835.47 180.541 2843.89 185.844 2851.06 192.94C2858.3 200.036 2863.93 208.961 2867.95 219.714C2871.98 230.395 2873.99 242.904 2873.99 257.242V270.081H2731.67V241.112H2829.99C2829.99 234.382 2828.52 228.42 2825.6 223.226C2822.67 218.032 2818.61 213.972 2813.42 211.046C2808.3 208.047 2802.34 206.547 2795.53 206.547C2788.44 206.547 2782.15 208.193 2776.66 211.485C2771.25 214.703 2767 219.056 2763.93 224.543C2760.86 229.956 2759.29 235.991 2759.21 242.648V270.19C2759.21 278.53 2760.75 285.735 2763.82 291.807C2766.97 297.879 2771.39 302.561 2777.1 305.853C2782.8 309.145 2789.57 310.79 2797.4 310.79C2802.59 310.79 2807.35 310.059 2811.66 308.596C2815.98 307.133 2819.67 304.938 2822.75 302.012C2825.82 299.086 2828.16 295.501 2829.77 291.259L2873 294.111C2870.81 304.499 2866.31 313.57 2859.51 321.325C2852.78 329.006 2844.07 335.004 2833.39 339.32C2822.78 343.563 2810.53 345.685 2796.63 345.685Z" fill="white"/>
<path d="M2904.49 342.393V173.847H2949.05V203.584H2951.02C2954.53 193.708 2960.38 185.918 2968.58 180.212C2976.77 174.506 2986.57 171.653 2997.98 171.653C3009.54 171.653 3019.38 174.542 3027.5 180.321C3035.62 186.027 3041.04 193.782 3043.74 203.584H3045.5C3048.94 193.928 3055.15 186.21 3064.15 180.431C3073.22 174.579 3083.94 171.653 3096.3 171.653C3112.03 171.653 3124.8 176.664 3134.6 186.686C3144.47 196.635 3149.41 210.753 3149.41 229.042V342.393H3102.78V238.259C3102.78 228.895 3100.29 221.872 3095.32 217.191C3090.34 212.509 3084.12 210.168 3076.66 210.168C3068.18 210.168 3061.56 212.875 3056.8 218.288C3052.05 223.628 3049.67 230.687 3049.67 239.466V342.393H3004.35V237.271C3004.35 229.005 3001.97 222.421 2997.22 217.52C2992.53 212.619 2986.35 210.168 2978.67 210.168C2973.48 210.168 2968.8 211.485 2964.63 214.118C2960.53 216.679 2957.28 220.3 2954.86 224.982C2952.45 229.59 2951.24 235.004 2951.24 241.222V342.393H2904.49Z" fill="white"/>
<path d="M3186.34 405.597V173.847H3232.42V202.158H3234.51C3236.56 197.622 3239.52 193.013 3243.4 188.332C3247.35 183.577 3252.47 179.626 3258.76 176.481C3265.12 173.262 3273.02 171.653 3282.46 171.653C3294.75 171.653 3306.09 174.871 3316.48 181.309C3326.86 187.673 3335.17 197.293 3341.39 210.168C3347.6 222.97 3350.71 239.027 3350.71 258.339C3350.71 277.14 3347.68 293.014 3341.6 305.962C3335.61 318.837 3327.41 328.603 3317.03 335.26C3306.71 341.844 3295.15 345.136 3282.35 345.136C3273.28 345.136 3265.56 343.636 3259.2 340.637C3252.91 337.638 3247.75 333.87 3243.73 329.335C3239.7 324.726 3236.63 320.081 3234.51 315.399H3233.08V405.597H3186.34ZM3232.09 258.12C3232.09 268.142 3233.48 276.884 3236.26 284.346C3239.04 291.807 3243.07 297.623 3248.33 301.793C3253.6 305.889 3260 307.937 3267.54 307.937C3275.14 307.937 3281.58 305.853 3286.85 301.683C3292.12 297.44 3296.1 291.588 3298.81 284.126C3301.59 276.591 3302.98 267.923 3302.98 258.12C3302.98 248.391 3301.63 239.832 3298.92 232.443C3296.21 225.055 3292.23 219.276 3286.96 215.106C3281.69 210.936 3275.22 208.851 3267.54 208.851C3259.93 208.851 3253.49 210.863 3248.22 214.886C3243.03 218.91 3239.04 224.616 3236.26 232.004C3233.48 239.393 3232.09 248.098 3232.09 258.12Z" fill="white"/>
<path d="M3428.62 117.665V342.393H3381.88V117.665H3428.62Z" fill="white"/>
<path d="M3514.13 345.575C3503.37 345.575 3493.79 343.71 3485.38 339.979C3476.97 336.175 3470.31 330.578 3465.41 323.19C3460.58 315.728 3458.17 306.438 3458.17 295.319C3458.17 285.955 3459.88 278.091 3463.32 271.727C3466.76 265.362 3471.44 260.241 3477.37 256.364C3483.29 252.487 3490.02 249.561 3497.56 247.586C3505.17 245.611 3513.14 244.221 3521.48 243.416C3531.28 242.392 3539.18 241.441 3545.18 240.563C3551.18 239.612 3555.53 238.222 3558.24 236.393C3560.95 234.565 3562.3 231.858 3562.3 228.273V227.615C3562.3 220.665 3560.1 215.289 3555.72 211.485C3551.4 207.681 3545.25 205.779 3537.28 205.779C3528.87 205.779 3522.17 207.644 3517.2 211.375C3512.23 215.033 3508.93 219.641 3507.32 225.201L3464.09 221.69C3466.29 211.448 3470.6 202.597 3477.04 195.135C3483.48 187.6 3491.78 181.821 3501.95 177.798C3512.19 173.701 3524.04 171.653 3537.5 171.653C3546.86 171.653 3555.83 172.75 3564.38 174.945C3573.02 177.139 3580.66 180.541 3587.32 185.149C3594.05 189.758 3599.35 195.684 3603.23 202.926C3607.11 210.095 3609.04 218.69 3609.04 228.712V342.393H3564.71V319.02H3563.4C3560.69 324.287 3557.07 328.933 3552.53 332.956C3548 336.906 3542.55 340.015 3536.18 342.283C3529.82 344.478 3522.47 345.575 3514.13 345.575ZM3527.52 313.314C3534.39 313.314 3540.46 311.961 3545.73 309.254C3551 306.474 3555.13 302.744 3558.13 298.062C3561.13 293.38 3562.63 288.076 3562.63 282.151V264.265C3561.17 265.216 3559.15 266.094 3556.59 266.898C3554.11 267.63 3551.29 268.325 3548.14 268.983C3545 269.569 3541.85 270.117 3538.71 270.629C3535.56 271.068 3532.71 271.471 3530.15 271.836C3524.66 272.641 3519.87 273.921 3515.77 275.677C3511.68 277.433 3508.49 279.81 3506.23 282.809C3503.96 285.735 3502.83 289.393 3502.83 293.782C3502.83 300.147 3505.13 305.011 3509.74 308.376C3514.42 311.668 3520.35 313.314 3527.52 313.314Z" fill="white"/>
<path d="M3734.96 173.847V208.961H3633.46V173.847H3734.96ZM3656.5 133.467H3703.25V290.6C3703.25 294.916 3703.91 298.281 3705.22 300.695C3706.54 303.036 3708.37 304.682 3710.71 305.633C3713.12 306.584 3715.9 307.06 3719.05 307.06C3721.24 307.06 3723.44 306.877 3725.63 306.511C3727.83 306.072 3729.51 305.743 3730.68 305.523L3738.03 340.308C3735.69 341.039 3732.4 341.881 3728.16 342.832C3723.91 343.856 3718.76 344.478 3712.68 344.697C3701.42 345.136 3691.54 343.636 3683.06 340.198C3674.64 336.76 3668.1 331.42 3663.42 324.178C3658.73 316.935 3656.43 307.791 3656.5 296.745V133.467Z" fill="white"/>
<path d="M3840.41 345.685C3823.07 345.685 3808.15 342.173 3795.64 335.151C3783.2 328.055 3773.62 318.033 3766.89 305.085C3760.16 292.063 3756.8 276.664 3756.8 258.888C3756.8 241.551 3760.16 226.335 3766.89 213.24C3773.62 200.146 3783.09 189.941 3795.31 182.626C3807.6 175.31 3822.01 171.653 3838.54 171.653C3849.66 171.653 3860.02 173.445 3869.6 177.029C3879.25 180.541 3887.67 185.844 3894.84 192.94C3902.08 200.036 3907.71 208.961 3911.74 219.714C3915.76 230.395 3917.77 242.904 3917.77 257.242V270.081H3775.45V241.112H3873.77C3873.77 234.382 3872.31 228.42 3869.38 223.226C3866.45 218.032 3862.39 213.972 3857.2 211.046C3852.08 208.047 3846.12 206.547 3839.31 206.547C3832.22 206.547 3825.93 208.193 3820.44 211.485C3815.03 214.703 3810.78 219.056 3807.71 224.543C3804.64 229.956 3803.07 235.991 3802.99 242.648V270.19C3802.99 278.53 3804.53 285.735 3807.6 291.807C3810.75 297.879 3815.17 302.561 3820.88 305.853C3826.58 309.145 3833.35 310.79 3841.18 310.79C3846.37 310.79 3851.13 310.059 3855.44 308.596C3859.76 307.133 3863.45 304.938 3866.53 302.012C3869.6 299.086 3871.94 295.501 3873.55 291.259L3916.78 294.111C3914.59 304.499 3910.09 313.57 3903.29 321.325C3896.56 329.006 3887.85 335.004 3877.17 339.32C3866.56 343.563 3854.31 345.685 3840.41 345.685Z" fill="white"/>
</svg>
